<svg width="48" height="48" viewBox="0 0 48 48" fill="none" xmlns="http://www.w3.org/2000/svg">
<g id="Benifits Icons">
<path id="Vector" fill-rule="evenodd" clip-rule="evenodd" d="M20 4.5C10.2596 4.5 2.5 12.8104 2.5 22.8888V25C2.5 29.9896 4.3934 34.529 7.48164 37.8506C7.44364 38.5086 7.3425 39.3688 7.13958 40.2346C6.85936 41.4304 6.43562 42.4146 5.91108 42.9684C5.49888 43.4034 5.38526 44.0422 5.62206 44.5926C5.85888 45.1432 6.40068 45.5 7 45.5C9.80116 45.5 12.0459 44.6732 13.5876 43.8482C14.337 43.447 14.9255 43.0438 15.3388 42.7292C16.8238 43.1592 18.3873 43.3888 20 43.3888H28C37.7404 43.3888 45.5 35.0784 45.5 25V22.8888C45.5 12.8104 37.7404 4.5 28 4.5H20ZM20.4448 16.5C19.8174 16.5 19.2562 16.8906 19.0382 17.479L14.5938 29.479C14.3061 30.2558 14.7026 31.1188 15.4794 31.4066C16.2563 31.6944 17.1193 31.2978 17.407 30.521L18.8222 26.7H23.1786L24.5938 30.521C24.8816 31.2978 25.7446 31.6944 26.5214 31.4066C27.2982 31.1188 27.6948 30.2558 27.407 29.479L22.9626 17.479C22.7446 16.8906 22.1834 16.5 21.556 16.5H20.4448ZM22.0674 23.7H19.9333L21.0004 20.8188L22.0674 23.7ZM33.5004 18C33.5004 17.1716 32.8288 16.5 32.0004 16.5C31.172 16.5 30.5004 17.1716 30.5004 18V30C30.5004 30.8284 31.172 31.5 32.0004 31.5C32.8288 31.5 33.5004 30.8284 33.5004 30V18Z" fill="url(#paint0_linear_2356_491)"/>
</g>
<defs>
<linearGradient id="paint0_linear_2356_491" x1="24" y1="4.5" x2="24" y2="45.5" gradientUnits="userSpaceOnUse">
<stop stop-color="#A8E4FF"/>
<stop offset="1" stop-color="#54C0F1"/>
</linearGradient>
</defs>
</svg>
