<svg width="155" height="42" viewBox="0 0 155 42" fill="none" xmlns="http://www.w3.org/2000/svg">
<g id="Group">
<g id="Group_2">
<g id="Group_3">
<path id="Vector" d="M25.1836 19.6967C25.143 15.1845 28.8782 12.9893 29.049 12.8871C26.9336 9.8029 23.6548 9.3815 22.5026 9.3479C19.7488 9.0581 17.0776 10.9957 15.6748 10.9957C14.244 10.9957 12.0838 9.3759 9.75562 9.4235C6.75962 9.4697 3.95682 11.2043 2.41962 13.8979C-0.75278 19.3901 1.61322 27.4611 4.65262 31.9005C6.17302 34.0747 7.94962 36.5023 10.275 36.4169C12.55 36.3231 13.3998 34.9665 16.1452 34.9665C18.8654 34.9665 19.6634 36.4169 22.035 36.3623C24.4766 36.3231 26.0138 34.1783 27.481 31.9845C29.238 29.4925 29.9436 27.0383 29.9716 26.9123C29.9142 26.8927 25.2298 25.1049 25.1836 19.6967Z" fill="white"/>
<path id="Vector_2" d="M20.7067 6.42772C21.9303 4.89752 22.7675 2.81572 22.5351 0.703125C20.7641 0.781525 18.5493 1.92813 17.2739 3.42473C16.1455 4.74353 15.1375 6.90512 15.3979 8.93792C17.3873 9.08632 19.4299 7.93412 20.7067 6.42772Z" fill="white"/>
</g>
</g>
<g id="Group_4">
<path id="Vector_3" d="M58.105 36.1058H54.9256L53.184 30.6332H47.1304L45.4714 36.1058H42.376L48.3736 17.4746H52.078L58.105 36.1058ZM52.659 28.3372L51.084 23.4722C50.9174 22.9752 50.6052 21.8048 50.1446 19.9624H50.0886C49.9052 20.7548 49.6098 21.9252 49.2038 23.4722L47.6568 28.3372H52.659Z" fill="white"/>
<path id="Vector_4" d="M73.5302 29.2233C73.5302 31.5081 72.9128 33.3141 71.678 34.6399C70.572 35.8201 69.1986 36.4095 67.5592 36.4095C65.7896 36.4095 64.5184 35.7739 63.7442 34.5027H63.6882V41.5797H60.7034V27.0939C60.7034 25.6575 60.6656 24.1833 60.5928 22.6713H63.2178L63.3844 24.8007H63.4404C64.4358 23.1963 65.9464 22.3955 67.9736 22.3955C69.5584 22.3955 70.8814 23.0213 71.9398 24.2743C73.001 25.5287 73.5302 27.1779 73.5302 29.2233ZM70.4894 29.3325C70.4894 28.0249 70.1954 26.9469 69.6046 26.0985C68.9592 25.2137 68.0926 24.7713 67.0062 24.7713C66.2698 24.7713 65.6006 25.0177 65.0028 25.5035C64.4036 25.9935 64.0116 26.6333 63.8282 27.4257C63.7358 27.7953 63.6896 28.0977 63.6896 28.3357V30.5757C63.6896 31.5529 63.9892 32.3775 64.5884 33.0509C65.1876 33.7243 65.966 34.0603 66.9236 34.0603C68.0478 34.0603 68.9228 33.6263 69.5486 32.7611C70.1758 31.8945 70.4894 30.7521 70.4894 29.3325Z" fill="white"/>
<path id="Vector_5" d="M88.9829 29.2233C88.9829 31.5081 88.3655 33.3141 87.1293 34.6399C86.0247 35.8201 84.6513 36.4095 83.0119 36.4095C81.2423 36.4095 79.9711 35.7739 79.1983 34.5027H79.1423V41.5797H76.1575V27.0939C76.1575 25.6575 76.1197 24.1833 76.0469 22.6713H78.6719L78.8385 24.8007H78.8945C79.8885 23.1963 81.3991 22.3955 83.4277 22.3955C85.0111 22.3955 86.3341 23.0213 87.3953 24.2743C88.4523 25.5287 88.9829 27.1779 88.9829 29.2233ZM85.9421 29.3325C85.9421 28.0249 85.6467 26.9469 85.0559 26.0985C84.4105 25.2137 83.5467 24.7713 82.4589 24.7713C81.7211 24.7713 81.0533 25.0177 80.4541 25.5035C79.8549 25.9935 79.4643 26.6333 79.2809 27.4257C79.1899 27.7953 79.1423 28.0977 79.1423 28.3357V30.5757C79.1423 31.5529 79.4419 32.3775 80.0383 33.0509C80.6375 33.7229 81.4159 34.0603 82.3763 34.0603C83.5005 34.0603 84.3755 33.6263 85.0013 32.7611C85.6285 31.8945 85.9421 30.7521 85.9421 29.3325Z" fill="white"/>
<path id="Vector_6" d="M106.254 30.8806C106.254 32.4654 105.704 33.7548 104.599 34.7502C103.385 35.838 101.695 36.3812 99.5239 36.3812C97.5191 36.3812 95.9119 35.9948 94.6953 35.2206L95.3869 32.7328C96.6973 33.5252 98.1351 33.9228 99.7017 33.9228C100.826 33.9228 101.701 33.668 102.33 33.1612C102.955 32.6544 103.268 31.974 103.268 31.1256C103.268 30.3696 103.01 29.7326 102.493 29.216C101.98 28.6994 101.121 28.2192 99.9229 27.7754C96.6609 26.5588 95.0313 24.7766 95.0313 22.433C95.0313 20.9014 95.6025 19.6456 96.7463 18.6684C97.8859 17.6898 99.4063 17.2012 101.308 17.2012C103.003 17.2012 104.411 17.4966 105.536 18.086L104.789 20.5192C103.739 19.948 102.552 19.6624 101.224 19.6624C100.174 19.6624 99.3531 19.9214 98.7651 20.4366C98.2681 20.8972 98.0189 21.4586 98.0189 22.1236C98.0189 22.86 98.3031 23.469 98.8743 23.9478C99.3713 24.3902 100.274 24.869 101.585 25.3856C103.188 26.031 104.365 26.7856 105.123 27.6508C105.877 28.5132 106.254 29.5926 106.254 30.8806Z" fill="white"/>
<path id="Vector_7" d="M116.128 24.9116H112.838V31.4342C112.838 33.0932 113.417 33.922 114.579 33.922C115.113 33.922 115.555 33.8758 115.905 33.7834L115.988 36.05C115.4 36.2698 114.626 36.3804 113.667 36.3804C112.488 36.3804 111.567 36.0206 110.902 35.3024C110.239 34.5828 109.906 33.376 109.906 31.6806V24.9088H107.946V22.6688H109.906V20.209L112.838 19.3242V22.6688H116.128V24.9116Z" fill="white"/>
<path id="Vector_8" d="M130.97 29.2775C130.97 31.3425 130.379 33.0379 129.201 34.3637C127.964 35.7287 126.324 36.4091 124.278 36.4091C122.307 36.4091 120.738 35.7553 119.567 34.4477C118.397 33.1401 117.812 31.4895 117.812 29.5001C117.812 27.4183 118.414 25.7131 119.622 24.3873C120.827 23.0601 122.454 22.3965 124.499 22.3965C126.471 22.3965 128.057 23.0503 129.254 24.3593C130.399 25.6291 130.97 27.2685 130.97 29.2775ZM127.873 29.3741C127.873 28.1351 127.609 27.0725 127.073 26.1863C126.447 25.1139 125.552 24.5791 124.393 24.5791C123.193 24.5791 122.282 25.1153 121.656 26.1863C121.12 27.0739 120.855 28.1533 120.855 29.4301C120.855 30.6691 121.12 31.7317 121.656 32.6165C122.301 33.6889 123.203 34.2237 124.366 34.2237C125.506 34.2237 126.401 33.6777 127.046 32.5885C127.596 31.6855 127.873 30.6117 127.873 29.3741Z" fill="white"/>
<path id="Vector_9" d="M140.673 25.2963C140.378 25.2417 140.063 25.2137 139.732 25.2137C138.682 25.2137 137.87 25.6099 137.299 26.4037C136.802 27.1037 136.553 27.9885 136.553 29.0567V36.1057H133.569L133.597 26.9021C133.597 25.3537 133.56 23.9439 133.485 22.6727H136.085L136.194 25.2431H136.277C136.592 24.3597 137.089 23.6485 137.769 23.1151C138.434 22.6349 139.153 22.3955 139.927 22.3955C140.203 22.3955 140.452 22.4151 140.673 22.4501V25.2963Z" fill="white"/>
<path id="Vector_10" d="M154.021 28.7527C154.021 29.2875 153.986 29.7383 153.912 30.1065H144.958C144.993 31.4337 145.425 32.4487 146.257 33.1487C147.011 33.7745 147.987 34.0881 149.186 34.0881C150.511 34.0881 151.721 33.8767 152.809 33.4525L153.276 35.5245C152.005 36.0789 150.504 36.3547 148.773 36.3547C146.689 36.3547 145.054 35.7415 143.864 34.5165C142.677 33.2915 142.082 31.6465 142.082 29.5829C142.082 27.5571 142.635 25.8701 143.742 24.5247C144.902 23.0883 146.468 22.3701 148.439 22.3701C150.376 22.3701 151.841 23.0883 152.837 24.5247C153.625 25.6657 154.021 27.0769 154.021 28.7527ZM151.175 27.9785C151.195 27.0937 151 26.3293 150.595 25.6839C150.079 24.8537 149.285 24.4393 148.217 24.4393C147.241 24.4393 146.447 24.8439 145.841 25.6559C145.344 26.3013 145.049 27.0755 144.958 27.9771L151.175 27.9785Z" fill="white"/>
</g>
<g id="Group_5">
<g id="Group_6">
<path id="Vector_11" d="M51.6681 6.01218C51.6681 7.65998 51.1739 8.90038 50.1869 9.73338C49.2727 10.502 47.9735 10.887 46.2907 10.887C45.4563 10.887 44.7423 10.8506 44.1445 10.7778V1.77438C44.9243 1.64838 45.7643 1.58398 46.6715 1.58398C48.2745 1.58398 49.4827 1.93258 50.2975 2.62978C51.2103 3.41798 51.6681 4.54498 51.6681 6.01218ZM50.1211 6.05278C50.1211 4.98458 49.8383 4.16558 49.2727 3.59438C48.7071 3.02458 47.8811 2.73898 46.7933 2.73898C46.3313 2.73898 45.9379 2.76978 45.6117 2.83418V9.67878C45.7923 9.70678 46.1227 9.71938 46.6029 9.71938C47.7257 9.71938 48.5923 9.40718 49.2027 8.78278C49.8131 8.15838 50.1211 7.24838 50.1211 6.05278Z" fill="white"/>
<path id="Vector_12" d="M59.872 7.45089C59.872 8.46589 59.5822 9.29749 59.0026 9.94989C58.395 10.6205 57.59 10.9551 56.5848 10.9551C55.616 10.9551 54.8446 10.6345 54.2692 9.99049C53.6952 9.34789 53.4082 8.53729 53.4082 7.56009C53.4082 6.53809 53.7036 5.69949 54.2972 5.04849C54.8908 4.39749 55.6888 4.07129 56.694 4.07129C57.6628 4.07129 58.4412 4.39189 59.0306 5.03449C59.5906 5.65889 59.872 6.46529 59.872 7.45089ZM58.3502 7.49849C58.3502 6.88949 58.2186 6.36729 57.9568 5.93189C57.6488 5.40549 57.2106 5.14229 56.6408 5.14229C56.0514 5.14229 55.6034 5.40549 55.2954 5.93189C55.0322 6.36729 54.902 6.89789 54.902 7.52509C54.902 8.13409 55.0336 8.65629 55.2954 9.09169C55.6132 9.61809 56.0556 9.88129 56.6268 9.88129C57.1868 9.88129 57.6264 9.61389 57.9428 9.07769C58.2144 8.63389 58.3502 8.10749 58.3502 7.49849Z" fill="white"/>
<path id="Vector_13" d="M70.8677 4.20605L68.8027 10.8057H67.4587L66.6033 7.93985C66.3863 7.22445 66.2099 6.51325 66.0727 5.80765H66.0461C65.9187 6.53286 65.7423 7.24265 65.5155 7.93985L64.6069 10.8057H63.2475L61.3057 4.20605H62.8135L63.5597 7.34346C63.7403 8.08546 63.8887 8.79245 64.0077 9.46165H64.0343C64.1435 8.91005 64.3241 8.20726 64.5789 7.35746L65.5155 4.20746H66.7111L67.6085 7.29026C67.8255 8.04206 68.0019 8.76586 68.1377 9.46306H68.1783C68.2777 8.78406 68.4275 8.06026 68.6263 7.29026L69.4271 4.20746H70.8677V4.20605Z" fill="white"/>
<path id="Vector_14" d="M78.4762 10.8056H77.009V7.02558C77.009 5.86078 76.5666 5.27838 75.679 5.27838C75.2436 5.27838 74.8922 5.43798 74.6192 5.75858C74.349 6.07918 74.2118 6.45718 74.2118 6.88978V10.8042H72.7446V6.09178C72.7446 5.51218 72.7264 4.88358 72.6914 4.20318H73.9808L74.0494 5.23498H74.09C74.2608 4.91438 74.5156 4.64978 74.8502 4.43838C75.2478 4.19198 75.693 4.06738 76.1802 4.06738C76.7962 4.06738 77.3086 4.26618 77.716 4.66518C78.2228 5.15378 78.4762 5.88318 78.4762 6.85198V10.8056Z" fill="white"/>
<path id="Vector_15" d="M82.5185 10.8055H81.0527V1.17773H82.5185V10.8055Z" fill="white"/>
<path id="Vector_16" d="M91.1591 7.45089C91.1591 8.46589 90.8693 9.29749 90.2897 9.94989C89.6821 10.6205 88.8757 10.9551 87.8719 10.9551C86.9017 10.9551 86.1303 10.6345 85.5563 9.99049C84.9823 9.34789 84.6953 8.53729 84.6953 7.56009C84.6953 6.53809 84.9907 5.69949 85.5843 5.04849C86.1779 4.39749 86.9759 4.07129 87.9797 4.07129C88.9499 4.07129 89.7269 4.39189 90.3177 5.03449C90.8777 5.65889 91.1591 6.46529 91.1591 7.45089ZM89.6359 7.49849C89.6359 6.88949 89.5043 6.36729 89.2425 5.93189C88.9359 5.40549 88.4963 5.14229 87.9279 5.14229C87.3371 5.14229 86.8891 5.40549 86.5825 5.93189C86.3193 6.36729 86.1891 6.89789 86.1891 7.52509C86.1891 8.13409 86.3207 8.65629 86.5825 9.09169C86.9003 9.61809 87.3427 9.88129 87.9139 9.88129C88.4739 9.88129 88.9121 9.61389 89.2285 9.07769C89.5015 8.63389 89.6359 8.10749 89.6359 7.49849Z" fill="white"/>
<path id="Vector_17" d="M98.2618 10.8053H96.9444L96.8351 10.0451H96.7945C96.3437 10.6513 95.7011 10.9551 94.8667 10.9551C94.2437 10.9551 93.7398 10.7549 93.3604 10.3573C93.016 9.99609 92.8438 9.54669 92.8438 9.01329C92.8438 8.20689 93.1797 7.59229 93.8559 7.16669C94.5307 6.74109 95.48 6.53249 96.7022 6.54229V6.41909C96.7022 5.54969 96.2458 5.11569 95.3316 5.11569C94.6806 5.11569 94.1066 5.27949 93.611 5.60429L93.3127 4.64109C93.9259 4.26169 94.6834 4.07129 95.5766 4.07129C97.3014 4.07129 98.1666 4.98129 98.1666 6.80129V9.23169C98.1666 9.89109 98.1988 10.4161 98.2618 10.8053ZM96.7385 8.53729V7.51949C95.1201 7.49149 94.311 7.93529 94.311 8.84949C94.311 9.19389 94.4034 9.45149 94.5924 9.62369C94.7814 9.79589 95.0222 9.88129 95.3092 9.88129C95.6312 9.88129 95.9322 9.77909 96.2066 9.57609C96.4824 9.37169 96.6517 9.11269 96.7147 8.79489C96.7301 8.72349 96.7385 8.63669 96.7385 8.53729Z" fill="white"/>
<path id="Vector_18" d="M106.598 10.8055H105.296L105.227 9.74573H105.187C104.771 10.5521 104.062 10.9553 103.067 10.9553C102.272 10.9553 101.61 10.6431 101.085 10.0187C100.56 9.39433 100.298 8.58373 100.298 7.58833C100.298 6.52013 100.582 5.65493 101.153 4.99413C101.706 4.37813 102.384 4.07013 103.19 4.07013C104.076 4.07013 104.697 4.36833 105.049 4.96613H105.077V1.17773H106.546V9.02753C106.546 9.67013 106.563 10.2623 106.598 10.8055ZM105.077 8.02233V6.92193C105.077 6.73153 105.063 6.57753 105.037 6.45993C104.954 6.10713 104.776 5.81033 104.506 5.57093C104.233 5.33153 103.904 5.21113 103.525 5.21113C102.977 5.21113 102.549 5.42813 102.234 5.86353C101.922 6.29893 101.764 6.85473 101.764 7.53373C101.764 8.18613 101.913 8.71533 102.214 9.12273C102.532 9.55673 102.961 9.77373 103.497 9.77373C103.978 9.77373 104.363 9.59313 104.656 9.23053C104.939 8.89593 105.077 8.49273 105.077 8.02233Z" fill="white"/>
<path id="Vector_19" d="M119.143 7.45089C119.143 8.46589 118.853 9.29749 118.273 9.94989C117.666 10.6205 116.862 10.9551 115.855 10.9551C114.888 10.9551 114.117 10.6345 113.54 9.99049C112.966 9.34789 112.679 8.53729 112.679 7.56009C112.679 6.53809 112.974 5.69949 113.568 5.04849C114.161 4.39749 114.959 4.07129 115.966 4.07129C116.933 4.07129 117.713 4.39189 118.301 5.03449C118.861 5.65889 119.143 6.46529 119.143 7.45089ZM117.622 7.49849C117.622 6.88949 117.491 6.36729 117.229 5.93189C116.919 5.40549 116.483 5.14229 115.911 5.14229C115.323 5.14229 114.875 5.40549 114.566 5.93189C114.303 6.36729 114.173 6.89789 114.173 7.52509C114.173 8.13409 114.304 8.65629 114.566 9.09169C114.884 9.61809 115.326 9.88129 115.897 9.88129C116.457 9.88129 116.898 9.61389 117.215 9.07769C117.485 8.63389 117.622 8.10749 117.622 7.49849Z" fill="white"/>
<path id="Vector_20" d="M127.031 10.8056H125.566V7.02558C125.566 5.86078 125.123 5.27838 124.234 5.27838C123.799 5.27838 123.447 5.43798 123.176 5.75858C122.904 6.07918 122.768 6.45718 122.768 6.88978V10.8042H121.3V6.09178C121.3 5.51218 121.283 4.88358 121.248 4.20318H122.536L122.605 5.23498H122.645C122.817 4.91438 123.072 4.64978 123.405 4.43838C123.804 4.19198 124.248 4.06738 124.737 4.06738C125.351 4.06738 125.864 4.26618 126.271 4.66518C126.779 5.15378 127.031 5.88318 127.031 6.85198V10.8056Z" fill="white"/>
<path id="Vector_21" d="M136.911 5.3051H135.295V8.5111C135.295 9.3259 135.582 9.7333 136.151 9.7333C136.414 9.7333 136.632 9.7109 136.805 9.6647L136.842 10.7777C136.553 10.8869 136.172 10.9415 135.703 10.9415C135.123 10.9415 134.672 10.7651 134.346 10.4123C134.019 10.0595 133.856 9.4659 133.856 8.6329V5.3051H132.892V4.2061H133.856V2.9965L135.294 2.5625V4.2047H136.91L136.911 5.3051Z" fill="white"/>
<path id="Vector_22" d="M144.677 10.8055H143.208V7.05353C143.208 5.87053 142.766 5.27833 141.88 5.27833C141.199 5.27833 140.735 5.62133 140.48 6.30733C140.436 6.45153 140.411 6.62793 140.411 6.83513V10.8041H138.945V1.17773H140.411V5.15513H140.439C140.901 4.43133 141.563 4.07013 142.422 4.07013C143.029 4.07013 143.532 4.26893 143.931 4.66793C144.428 5.16493 144.677 5.90413 144.677 6.88133V10.8055Z" fill="white"/>
<path id="Vector_23" d="M152.688 7.19319C152.688 7.45639 152.668 7.67759 152.633 7.85819H148.233C148.253 8.51059 148.463 9.00759 148.87 9.35199C149.242 9.65999 149.723 9.81399 150.311 9.81399C150.962 9.81399 151.555 9.71039 152.09 9.50179L152.32 10.521C151.694 10.7926 150.957 10.9284 150.105 10.9284C149.083 10.9284 148.278 10.6274 147.695 10.0254C147.11 9.42339 146.82 8.61559 146.82 7.60199C146.82 6.60659 147.091 5.77779 147.635 5.11699C148.204 4.41139 148.972 4.05859 149.942 4.05859C150.892 4.05859 151.613 4.41139 152.1 5.11699C152.493 5.67699 152.688 6.36999 152.688 7.19319ZM151.288 6.81379C151.299 6.37839 151.202 6.00319 151.004 5.68679C150.749 5.27939 150.361 5.07499 149.836 5.07499C149.357 5.07499 148.967 5.27379 148.668 5.67279C148.425 5.99059 148.281 6.36999 148.233 6.81379H151.288Z" fill="white"/>
</g>
</g>
</g>
</svg>
