<svg width="25" height="24" viewBox="0 0 25 24" fill="none" xmlns="http://www.w3.org/2000/svg">
<g id="magic-wand-01">
<path id="Vector" fill-rule="evenodd" clip-rule="evenodd" d="M12.2432 9.03428C11.5308 8.32191 10.3759 8.32191 9.66349 9.03428L9.03428 9.66349C8.32191 10.3759 8.32191 11.5308 9.03428 12.2432L18.2566 21.4655C18.969 22.1779 20.124 22.1779 20.8363 21.4655L21.4655 20.8363C22.1779 20.124 22.1779 18.969 21.4655 18.2566L12.2432 9.03428ZM10.7242 10.0949C10.8507 9.96835 11.056 9.96835 11.1826 10.0949L13.6522 12.5646L12.5646 13.6522L10.0949 11.1826C9.96835 11.056 9.96835 10.8507 10.0949 10.7242L10.7242 10.0949Z" fill="#18AAEC"/>
<path id="Vector_2" d="M17.25 0.5C17.5638 0.5 17.8445 0.695396 17.9534 0.989723C18.3288 2.0043 18.732 2.69415 19.2564 3.22176C19.7805 3.74906 20.4744 4.1633 21.5103 4.54661C21.8046 4.65552 22 4.93617 22 5.25C22 5.56383 21.8046 5.84448 21.5103 5.95339C20.4957 6.32882 19.8059 6.73203 19.2782 7.25643C18.7509 7.78052 18.3367 8.47439 17.9534 9.51028C17.8445 9.8046 17.5638 10 17.25 10C16.9362 10 16.6555 9.8046 16.5466 9.51028C16.1909 8.54904 15.7689 7.8461 15.2237 7.29774C14.6788 6.74963 13.972 6.31687 12.9897 5.95339C12.6954 5.84448 12.5 5.56383 12.5 5.25C12.5 4.93617 12.6954 4.65552 12.9897 4.54661C14.0043 4.17119 14.6941 3.76797 15.2218 3.24357C15.7491 2.71948 16.1633 2.02561 16.5466 0.989723C16.6555 0.695397 16.9362 0.5 17.25 0.5Z" fill="#18AAEC"/>
<path id="Vector_3" d="M6.25 2.5C6.56383 2.5 6.84448 2.6954 6.95339 2.98972C7.2295 3.7359 7.51996 4.22654 7.88781 4.59665C8.25535 4.96644 8.74888 5.26487 9.51028 5.54661C9.8046 5.65552 10 5.93617 10 6.25C10 6.56383 9.8046 6.84448 9.51028 6.95339C8.76409 7.2295 8.27346 7.51996 7.90335 7.88781C7.53356 8.25535 7.23513 8.74888 6.95339 9.51028C6.84448 9.8046 6.56383 10 6.25 10C5.93617 10 5.65552 9.8046 5.54661 9.51028C5.2705 8.7641 4.98004 8.27346 4.61219 7.90336C4.24465 7.53356 3.75112 7.23513 2.98972 6.95339C2.6954 6.84448 2.5 6.56383 2.5 6.25C2.5 5.93617 2.6954 5.65552 2.98972 5.54661C3.7359 5.2705 4.22654 4.98004 4.59664 4.61219C4.96644 4.24465 5.26487 3.75112 5.54661 2.98972C5.65552 2.6954 5.93617 2.5 6.25 2.5Z" fill="#18AAEC"/>
</g>
</svg>
