<svg width="48" height="48" viewBox="0 0 48 48" fill="none" xmlns="http://www.w3.org/2000/svg">
<g id="Benifits Icons">
<path id="Vector" fill-rule="evenodd" clip-rule="evenodd" d="M10.5 6C10.5 4.067 12.067 2.5 14 2.5C15.933 2.5 17.5 4.067 17.5 6C17.5 7.3962 16.6825 8.60146 15.5 9.16318V14H12.5V9.16318C11.3175 8.60146 10.5 7.3962 10.5 6Z" fill="url(#paint0_linear_2356_619)"/>
<path id="Vector_2" fill-rule="evenodd" clip-rule="evenodd" d="M30.5 6C30.5 4.067 32.067 2.5 34 2.5C35.933 2.5 37.5 4.067 37.5 6C37.5 7.3962 36.6824 8.60146 35.5 9.16318V14H32.5V9.16318C31.3176 8.60146 30.5 7.3962 30.5 6Z" fill="url(#paint1_linear_2356_619)"/>
<path id="Vector_3" fill-rule="evenodd" clip-rule="evenodd" d="M7.5 19C7.5 15.9624 9.96244 13.5 13 13.5H35C38.0376 13.5 40.5 15.9624 40.5 19V35C40.5 38.0376 38.0376 40.5 35 40.5H33.2298L32.7742 42.7776C32.4184 44.5566 30.3458 45.3762 28.8696 44.3216L24.1712 40.9656C23.7472 40.6628 23.2392 40.5 22.7182 40.5H13C9.96244 40.5 7.5 38.0376 7.5 35V19ZM17.9733 28.9064C18.5773 28.3394 19.5266 28.3694 20.0936 28.9734C20.9204 29.854 22.324 30.5 24 30.5C25.676 30.5 27.0796 29.854 27.9064 28.9734C28.4734 28.3694 29.4228 28.3394 30.0266 28.9064C30.6306 29.4734 30.6606 30.4228 30.0936 31.0266C28.64 32.5748 26.4132 33.5 24 33.5C21.5868 33.5 19.3599 32.5748 17.9064 31.0266C17.3394 30.4228 17.3694 29.4734 17.9733 28.9064ZM18 20C16.8954 20 16 20.8954 16 22C16 23.1046 16.8954 24 18 24H18.0179C19.1225 24 20.0178 23.1046 20.0178 22C20.0178 20.8954 19.1225 20 18.0179 20H18ZM29.9822 20C28.8776 20 27.9822 20.8954 27.9822 22C27.9822 23.1046 28.8776 24 29.9822 24H30C31.1046 24 32 23.1046 32 22C32 20.8954 31.1046 20 30 20H29.9822Z" fill="url(#paint2_linear_2356_619)"/>
<path id="Vector_4" d="M5.5 20.543C3.43448 21.491 2 23.5774 2 25.999C2 28.4204 3.43448 30.5068 5.5 31.4548V20.543Z" fill="url(#paint3_linear_2356_619)"/>
<path id="Vector_5" d="M42.5 31.4548C44.5656 30.5068 46 28.4204 46 25.999C46 23.5774 44.5656 21.491 42.5 20.543V31.4548Z" fill="url(#paint4_linear_2356_619)"/>
</g>
<defs>
<linearGradient id="paint0_linear_2356_619" x1="14" y1="2.5" x2="14" y2="14" gradientUnits="userSpaceOnUse">
<stop stop-color="#A8E4FF"/>
<stop offset="1" stop-color="#54C0F1"/>
</linearGradient>
<linearGradient id="paint1_linear_2356_619" x1="34" y1="2.5" x2="34" y2="14" gradientUnits="userSpaceOnUse">
<stop stop-color="#A8E4FF"/>
<stop offset="1" stop-color="#54C0F1"/>
</linearGradient>
<linearGradient id="paint2_linear_2356_619" x1="24" y1="13.5" x2="24" y2="44.7895" gradientUnits="userSpaceOnUse">
<stop stop-color="#A8E4FF"/>
<stop offset="1" stop-color="#54C0F1"/>
</linearGradient>
<linearGradient id="paint3_linear_2356_619" x1="3.75" y1="20.543" x2="3.75" y2="31.4548" gradientUnits="userSpaceOnUse">
<stop stop-color="#A8E4FF"/>
<stop offset="1" stop-color="#54C0F1"/>
</linearGradient>
<linearGradient id="paint4_linear_2356_619" x1="44.25" y1="20.543" x2="44.25" y2="31.4548" gradientUnits="userSpaceOnUse">
<stop stop-color="#A8E4FF"/>
<stop offset="1" stop-color="#54C0F1"/>
</linearGradient>
</defs>
</svg>
