<svg width="116" height="32" viewBox="0 0 116 32" fill="none" xmlns="http://www.w3.org/2000/svg">
<g clip-path="url(#clip0_93_3604)">
<path d="M52.6055 30.6779V13.3017H55.7168V28.0393H63.2812V30.6779H52.6055Z" fill="url(#paint0_linear_93_3604)"/>
<path d="M27.8042 30.6779H24.4834L30.5297 13.3017H34.3707L40.4254 30.6779H37.1046L32.5172 16.8652H32.3832L27.8042 30.6779ZM27.9133 23.8648H36.9704V26.3933H27.9133V23.8648Z" fill="url(#paint1_linear_93_3604)"/>
<path d="M9.95425 18.0783C9.876 17.3375 9.54612 16.7604 8.96477 16.3475C8.38899 15.9346 7.63982 15.7282 6.71726 15.7282C6.06881 15.7282 5.51238 15.8272 5.04849 16.0252C4.58442 16.2231 4.22944 16.4918 3.98337 16.8311C3.73731 17.1705 3.61166 17.5581 3.60591 17.9935C3.60591 18.3555 3.68712 18.6695 3.84919 18.9354C4.01683 19.2011 4.24338 19.4275 4.52848 19.614C4.81357 19.7951 5.12952 19.9477 5.47613 20.0722C5.82275 20.1967 6.17215 20.3012 6.52434 20.3862L8.13456 20.7935C8.78301 20.9462 9.40636 21.1526 10.0046 21.4129C10.6084 21.6729 11.148 22.001 11.6232 22.397C12.104 22.7928 12.4841 23.2708 12.7638 23.8309C13.0433 24.3909 13.1831 25.0469 13.1831 25.7992C13.1831 26.8174 12.9258 27.714 12.4114 28.4888C11.8971 29.2581 11.1535 29.8605 10.1808 30.296C9.21362 30.7258 8.0422 30.9407 6.6669 30.9407C5.3308 30.9407 4.17071 30.7315 3.18663 30.3129C2.2083 29.8944 1.4424 29.2834 0.888931 28.4804C0.341038 27.6771 0.0446121 26.6986 0 25.5447H3.06081C3.10559 26.1499 3.29014 26.6533 3.61445 27.0549C3.93859 27.4565 4.36083 27.7563 4.88067 27.9543C5.40626 28.1523 5.99318 28.2512 6.6418 28.2512C7.3183 28.2512 7.91098 28.1494 8.41966 27.9458C8.93392 27.7365 9.33648 27.4481 9.62733 27.0805C9.918 26.7071 10.0661 26.2716 10.0717 25.7739C10.0661 25.3213 9.93473 24.948 9.67751 24.6538C9.42047 24.354 9.05974 24.1051 8.59584 23.9073C8.13735 23.7036 7.60061 23.5226 6.98563 23.3643L5.03158 22.8551C3.61724 22.4875 2.49897 21.9303 1.67713 21.1837C0.860873 20.4314 0.452743 19.4331 0.452743 18.1887C0.452743 17.1649 0.726688 16.2684 1.27458 15.4991C1.82805 14.7299 2.58001 14.1331 3.53046 13.7089C4.4809 13.2791 5.55717 13.0641 6.75926 13.0641C7.97807 13.0641 9.0458 13.2791 9.96279 13.7089C10.8852 14.1331 11.6093 14.7243 12.1347 15.4822C12.6603 16.2345 12.9314 17.0998 12.9481 18.0783H9.95425Z" fill="url(#paint2_linear_93_3604)"/>
<path d="M112.772 18.0784C112.693 17.3375 112.364 16.7605 111.782 16.3476C111.206 15.9346 110.457 15.7282 109.535 15.7282C108.886 15.7282 108.33 15.8273 107.866 16.0253C107.402 16.2231 107.047 16.4918 106.801 16.8312C106.555 17.1706 106.429 17.5581 106.423 17.9936C106.423 18.3555 106.505 18.6695 106.667 18.9354C106.834 19.2011 107.061 19.4275 107.346 19.614C107.631 19.7951 107.947 19.9478 108.294 20.0722C108.64 20.1967 108.99 20.3013 109.342 20.3862L110.952 20.7935C111.6 20.9462 112.224 21.1527 112.822 21.4129C113.426 21.6729 113.965 22.0011 114.441 22.397C114.921 22.7929 115.301 23.2708 115.581 23.831C115.861 24.3909 116 25.047 116 25.7993C116 26.8174 115.743 27.714 115.229 28.4888C114.715 29.2581 113.971 29.8605 112.998 30.296C112.031 30.7258 110.86 30.9408 109.484 30.9408C108.148 30.9408 106.988 30.7315 106.004 30.3129C105.026 29.8944 104.26 29.2835 103.706 28.4804C103.158 27.6771 102.862 26.6986 102.817 25.5447H105.878C105.923 26.1499 106.108 26.6533 106.432 27.0549C106.756 27.4566 107.178 27.7563 107.698 27.9543C108.224 28.1523 108.811 28.2512 109.459 28.2512C110.136 28.2512 110.728 28.1495 111.237 27.9458C111.751 27.7365 112.154 27.4481 112.445 27.0805C112.735 26.7071 112.884 26.2716 112.889 25.7739C112.884 25.3213 112.752 24.948 112.495 24.6538C112.238 24.3541 111.877 24.1051 111.413 23.9073C110.955 23.7037 110.418 23.5226 109.803 23.3643L107.849 22.8551C106.435 22.4875 105.316 21.9304 104.495 21.1837C103.678 20.4314 103.27 19.4331 103.27 18.1887C103.27 17.1649 103.544 16.2684 104.092 15.4992C104.645 14.7299 105.397 14.1331 106.348 13.7089C107.298 13.2791 108.375 13.0642 109.577 13.0642C110.795 13.0642 111.863 13.2791 112.78 13.7089C113.703 14.1331 114.427 14.7243 114.952 15.4822C115.478 16.2345 115.749 17.0999 115.766 18.0784H112.772Z" fill="url(#paint3_linear_93_3604)"/>
<path fill-rule="evenodd" clip-rule="evenodd" d="M76.4531 0.0895953C76.5459 -0.0168949 76.7052 -0.0302939 76.814 0.0592708C77.434 0.569507 78.0575 0.993351 78.717 1.44153C80.3148 2.52759 82.1235 3.75716 84.603 6.70468C86.3529 8.78494 88.1693 11.2469 89.4167 12.9603C90.0561 12.9624 90.5299 12.8753 90.9274 12.7113C91.3507 12.5368 91.7069 12.2674 92.0941 11.8873C92.4045 11.5826 92.6891 11.2929 92.9541 11.0228C93.4782 10.489 93.9267 10.032 94.3521 9.6887C95.0138 9.15449 95.6633 8.85529 96.5299 8.90395C97.4112 8.9535 98.1102 9.45033 98.581 10.1291C99.0498 10.8051 99.3037 11.6745 99.3037 12.5179C99.3037 12.6034 99.2629 12.6837 99.1941 12.7332C99.1252 12.7829 99.0371 12.7958 98.9573 12.7679C97.6673 12.3189 96.7681 12.3732 96.1319 12.6856C95.4939 12.9987 95.0654 13.5983 94.7745 14.3579C94.4835 15.1181 94.3415 16.0101 94.2599 16.8613C94.2193 17.2855 94.1942 17.6954 94.1721 18.0706C94.1702 18.1053 94.1681 18.1397 94.1662 18.1739C94.1466 18.5066 94.1289 18.8128 94.1036 19.0676C94.0151 19.9638 93.8804 20.6136 93.5801 21.2683C93.2828 21.9167 92.8299 22.5552 92.1318 23.4379C91.2875 24.5069 91.7643 23.952 91.7643 23.4792C91.6515 23.388 91.6332 23.2216 91.7235 23.1075C92.4195 22.2272 92.8374 21.6315 93.1059 21.0458C93.3715 20.4662 93.4978 19.882 93.5834 19.0151C93.6075 18.7716 93.6247 18.4766 93.6444 18.1404C93.6463 18.1071 93.6482 18.0734 93.6503 18.0394C93.6723 17.6637 93.6981 17.2453 93.7396 16.8103C93.8227 15.9434 93.9701 14.9947 94.2869 14.1669C94.6041 13.3386 95.1023 12.6031 95.9036 12.2097C96.6338 11.8511 97.5703 11.7988 98.7628 12.1505C98.702 11.529 98.4892 10.9176 98.153 10.4329C97.7526 9.85549 97.1879 9.47078 96.501 9.43217C95.7992 9.39268 95.2724 9.62241 94.6781 10.1021C94.2761 10.4266 93.8626 10.8481 93.3556 11.3649C93.0868 11.6388 92.7917 11.9396 92.4582 12.267C92.0445 12.6729 91.633 12.9917 91.1247 13.2011C90.6165 13.4107 90.0308 13.5033 89.278 13.4876C87.8323 13.4573 86.381 13.0245 84.7804 12.3197C83.2543 11.648 81.5749 10.7208 79.6226 9.64322C79.5299 9.59191 79.4363 9.54025 79.3424 9.48841C78.2353 8.87751 77.4868 8.54411 76.4044 8.08782C72.8231 6.57792 68.3009 5.52183 65.6433 5.14718C65.57 6.13415 65.6322 8.45243 68.196 10.4449C69.4524 11.1473 70.4541 11.2797 72.0879 11.4953C72.4124 11.5382 72.7619 11.5844 73.1434 11.639C73.2863 11.6595 73.3858 11.7933 73.3656 11.9379C73.3454 12.0824 73.2131 12.1831 73.0702 12.1627C72.7029 12.1101 72.3617 12.0653 72.0408 12.0232C70.6112 11.8354 69.5858 11.7007 68.452 11.1695C68.9744 12.7981 70.5474 15.1313 73.3253 15.9669C73.3828 15.9841 73.4327 16.021 73.4667 16.0711C74.0518 16.9364 75.2067 18.1816 76.6486 19.1395C77.9077 19.9759 79.387 20.5794 80.9423 20.5399C84.389 20.4529 87.7584 19.407 89.8696 16.9293L90.0402 16.729L90.4362 17.0743L90.2656 17.2745C88.0201 19.9098 84.4794 20.9797 80.9554 21.0689C79.2586 21.1117 77.6748 20.4541 76.3616 19.5817C74.9035 18.6131 73.7249 17.3623 73.088 16.4468C69.8717 15.4367 68.1902 12.5629 67.8157 10.8158C64.8267 8.4526 65.0585 5.64172 65.1491 4.81924C65.157 4.74872 65.1923 4.68437 65.2474 4.64064C65.3025 4.59674 65.3727 4.57717 65.4422 4.58616C68.0135 4.91974 72.5689 5.95238 76.2673 7.45928L76.3835 5.6121C76.2603 5.37126 76.1187 5.01459 75.996 4.64928C75.8604 4.24589 75.7401 3.80776 75.6933 3.47542C75.4826 1.98315 75.9592 0.655897 76.4531 0.0895953ZM76.8675 6.24681L76.7777 7.67226C77.7792 8.09664 78.5235 8.43409 79.5926 9.02402C79.6831 9.07391 79.7728 9.12346 79.8619 9.17265C81.8246 10.2561 83.485 11.1727 84.989 11.8347C86.3484 12.4333 87.5651 12.8168 88.743 12.9273C87.5116 11.2411 85.8277 8.97677 84.2049 7.04743C81.7738 4.15738 80.0551 2.9904 78.4749 1.91738C77.8728 1.5087 77.2908 1.1136 76.6972 0.641971C76.3626 1.17548 76.043 2.2127 76.2108 3.40066C76.2511 3.6854 76.3595 4.08774 76.4909 4.47914C76.6193 4.8612 76.7617 5.21012 76.8692 5.4097C78.138 7.11389 79.7129 7.92879 80.1804 8.13155C80.3132 8.1892 80.3746 8.34453 80.3178 8.47887C80.261 8.61304 80.1072 8.67528 79.9745 8.6178C79.5074 8.41523 78.1178 7.69765 76.8675 6.24681Z" fill="url(#paint4_linear_93_3604)"/>
<path fill-rule="evenodd" clip-rule="evenodd" d="M76.4531 0.0895953C76.5459 -0.0168949 76.7052 -0.0302939 76.814 0.0592708C77.434 0.569507 78.0575 0.993351 78.717 1.44153C80.3148 2.52759 82.1235 3.75716 84.603 6.70468C86.3529 8.78494 88.1693 11.2469 89.4167 12.9603C90.0561 12.9624 90.5299 12.8753 90.9274 12.7113C91.3507 12.5368 91.7069 12.2674 92.0941 11.8873C92.4045 11.5826 92.6891 11.2929 92.9541 11.0228C93.4782 10.489 93.9267 10.032 94.3521 9.6887C95.0138 9.15449 95.6633 8.85529 96.5299 8.90395C97.4112 8.9535 98.1102 9.45033 98.581 10.1291C99.0498 10.8051 99.3037 11.6745 99.3037 12.5179C99.3037 12.6034 99.2629 12.6837 99.1941 12.7332C99.1252 12.7829 99.0371 12.7958 98.9573 12.7679C97.6673 12.3189 96.7681 12.3732 96.1319 12.6856C95.4939 12.9987 95.0654 13.5983 94.7745 14.3579C94.4835 15.1181 94.3415 16.0101 94.2599 16.8613C94.2193 17.2855 94.1942 17.6954 94.1721 18.0706C94.1702 18.1053 94.1681 18.1397 94.1662 18.1739C94.1466 18.5066 94.1289 18.8128 94.1036 19.0676C94.0151 19.9638 93.8804 20.6136 93.5801 21.2683C93.2828 21.9167 92.8299 22.5552 92.1318 23.4379C91.2875 24.5069 91.7643 23.952 91.7643 23.4792C91.6515 23.388 91.6332 23.2216 91.7235 23.1075C92.4195 22.2272 92.8374 21.6315 93.1059 21.0458C93.3715 20.4662 93.4978 19.882 93.5834 19.0151C93.6075 18.7716 93.6247 18.4766 93.6444 18.1404C93.6463 18.1071 93.6482 18.0734 93.6503 18.0394C93.6723 17.6637 93.6981 17.2453 93.7396 16.8103C93.8227 15.9434 93.9701 14.9947 94.2869 14.1669C94.6041 13.3386 95.1023 12.6031 95.9036 12.2097C96.6338 11.8511 97.5703 11.7988 98.7628 12.1505C98.702 11.529 98.4892 10.9176 98.153 10.4329C97.7526 9.85549 97.1879 9.47078 96.501 9.43217C95.7992 9.39268 95.2724 9.62241 94.6781 10.1021C94.2761 10.4266 93.8626 10.8481 93.3556 11.3649C93.0868 11.6388 92.7917 11.9396 92.4582 12.267C92.0445 12.6729 91.633 12.9917 91.1247 13.2011C90.6165 13.4107 90.0308 13.5033 89.278 13.4876C87.8323 13.4573 86.381 13.0245 84.7804 12.3197C83.2543 11.648 81.5749 10.7208 79.6226 9.64322C79.5299 9.59191 79.4363 9.54025 79.3424 9.48841C78.2353 8.87751 77.4868 8.54411 76.4044 8.08782C72.8231 6.57792 68.3009 5.52183 65.6433 5.14718C65.57 6.13415 65.6322 8.45243 68.196 10.4449C69.4524 11.1473 70.4541 11.2797 72.0879 11.4953C72.4124 11.5382 72.7619 11.5844 73.1434 11.639C73.2863 11.6595 73.3858 11.7933 73.3656 11.9379C73.3454 12.0824 73.2131 12.1831 73.0702 12.1627C72.7029 12.1101 72.3617 12.0653 72.0408 12.0232C70.6112 11.8354 69.5858 11.7007 68.452 11.1695C68.9744 12.7981 70.5474 15.1313 73.3253 15.9669C73.3828 15.9841 73.4327 16.021 73.4667 16.0711C74.0518 16.9364 75.2067 18.1816 76.6486 19.1395C77.9077 19.9759 79.387 20.5794 80.9423 20.5399C84.389 20.4529 87.7584 19.407 89.8696 16.9293L90.0402 16.729L90.4362 17.0743L90.2656 17.2745C88.0201 19.9098 84.4794 20.9797 80.9554 21.0689C79.2586 21.1117 77.6748 20.4541 76.3616 19.5817C74.9035 18.6131 73.7249 17.3623 73.088 16.4468C69.8717 15.4367 68.1902 12.5629 67.8157 10.8158C64.8267 8.4526 65.0585 5.64172 65.1491 4.81924C65.157 4.74872 65.1923 4.68437 65.2474 4.64064C65.3025 4.59674 65.3727 4.57717 65.4422 4.58616C68.0135 4.91974 72.5689 5.95238 76.2673 7.45928L76.3835 5.6121C76.2603 5.37126 76.1187 5.01459 75.996 4.64928C75.8604 4.24589 75.7401 3.80776 75.6933 3.47542C75.4826 1.98315 75.9592 0.655897 76.4531 0.0895953ZM76.8675 6.24681L76.7777 7.67226C77.7792 8.09664 78.5235 8.43409 79.5926 9.02402C79.6831 9.07391 79.7728 9.12346 79.8619 9.17265C81.8246 10.2561 83.485 11.1727 84.989 11.8347C86.3484 12.4333 87.5651 12.8168 88.743 12.9273C87.5116 11.2411 85.8277 8.97677 84.2049 7.04743C81.7738 4.15738 80.0551 2.9904 78.4749 1.91738C77.8728 1.5087 77.2908 1.1136 76.6972 0.641971C76.3626 1.17548 76.043 2.2127 76.2108 3.40066C76.2511 3.6854 76.3595 4.08774 76.4909 4.47914C76.6193 4.8612 76.7617 5.21012 76.8692 5.4097C78.138 7.11389 79.7129 7.92879 80.1804 8.13155C80.3132 8.1892 80.3746 8.34453 80.3178 8.47887C80.261 8.61304 80.1072 8.67528 79.9745 8.6178C79.5074 8.41523 78.1178 7.69765 76.8675 6.24681Z" fill="url(#paint5_linear_93_3604)"/>
<path d="M82.2548 29.0028C85.9602 29.0028 88.964 25.9638 88.964 22.2149C88.964 20.8864 88.5867 19.6472 87.9348 18.6006C88.3865 18.3361 89.4636 17.5604 90.1579 16.573C91.272 18.1674 91.9265 20.1138 91.9265 22.2149C91.9265 27.6191 87.5964 32 82.2548 32C76.9132 32 72.583 27.6191 72.583 22.2149C72.583 20.2625 73.1481 18.4435 74.1221 16.9165C74.5458 17.3897 75.5882 18.4595 76.3695 18.9532C75.8442 19.9211 75.5455 21.0328 75.5455 22.2149C75.5455 25.9638 78.5494 29.0028 82.2548 29.0028Z" fill="url(#paint6_linear_93_3604)"/>
<path d="M96.9511 10.9312C97.1436 10.9312 97.2996 10.7733 97.2996 10.5785C97.2996 10.3838 97.1436 10.2259 96.9511 10.2259C96.7586 10.2259 96.6025 10.3838 96.6025 10.5785C96.6025 10.7733 96.7586 10.9312 96.9511 10.9312Z" fill="#648DDE"/>
</g>
<defs>
<linearGradient id="paint0_linear_93_3604" x1="56.0854" y1="37.6419" x2="66.0417" y2="14.2052" gradientUnits="userSpaceOnUse">
<stop stop-color="#45E5FF"/>
<stop offset="1" stop-color="#7F42C1"/>
</linearGradient>
<linearGradient id="paint1_linear_93_3604" x1="32.473" y1="38.6997" x2="36.9649" y2="12.4038" gradientUnits="userSpaceOnUse">
<stop stop-color="#45E5FF"/>
<stop offset="1" stop-color="#7F42C1"/>
</linearGradient>
<linearGradient id="paint2_linear_93_3604" x1="6.50709" y1="33.4105" x2="12.6077" y2="13.021" gradientUnits="userSpaceOnUse">
<stop stop-color="#45E5FF"/>
<stop offset="1" stop-color="#7F42C1"/>
</linearGradient>
<linearGradient id="paint3_linear_93_3604" x1="109.324" y1="33.4105" x2="115.425" y2="13.021" gradientUnits="userSpaceOnUse">
<stop stop-color="#45E5FF"/>
<stop offset="1" stop-color="#7F42C1"/>
</linearGradient>
<linearGradient id="paint4_linear_93_3604" x1="82.204" y1="3.09573e-05" x2="82.204" y2="24.0518" gradientUnits="userSpaceOnUse">
<stop stop-color="white"/>
<stop offset="1" stop-color="#999999"/>
</linearGradient>
<linearGradient id="paint5_linear_93_3604" x1="82.1385" y1="21.4215" x2="80.8943" y2="3.08172" gradientUnits="userSpaceOnUse">
<stop stop-color="#45E5FF"/>
<stop offset="1" stop-color="#7F42C1"/>
</linearGradient>
<linearGradient id="paint6_linear_93_3604" x1="89.1961" y1="26.1818" x2="76.6362" y2="28.8544" gradientUnits="userSpaceOnUse">
<stop stop-color="#45E5FF"/>
<stop offset="1" stop-color="#7F42C1"/>
</linearGradient>
<clipPath id="clip0_93_3604">
<rect width="116" height="32" fill="white"/>
</clipPath>
</defs>
</svg>
