<svg width="34" height="32" viewBox="0 0 34 32" fill="none" xmlns="http://www.w3.org/2000/svg">
<g id="Group 1">
<path id="Vector" fill-rule="evenodd" clip-rule="evenodd" d="M11.2825 0.0895953C11.3748 -0.0168949 11.5332 -0.0302939 11.6413 0.0592708C12.2577 0.569507 12.8776 0.993351 13.5332 1.44153C15.1217 2.52759 16.9199 3.75716 19.3849 6.70468C21.1247 8.78494 22.9305 11.2469 24.1706 12.9603C24.8063 12.9624 25.2773 12.8753 25.6725 12.7113C26.0934 12.5368 26.4475 12.2674 26.8324 11.8873C27.141 11.5826 27.4239 11.2929 27.6874 11.0228C28.2084 10.489 28.6543 10.032 29.0772 9.6887C29.7351 9.15449 30.3808 8.85529 31.2424 8.90395C32.1185 8.9535 32.8134 9.45033 33.2815 10.1291C33.7476 10.8051 34 11.6745 34 12.5179C34 12.6034 33.9595 12.6837 33.891 12.7332C33.8226 12.7829 33.7349 12.7958 33.6556 12.7679C32.3732 12.3189 31.4792 12.3732 30.8467 12.6856C30.2124 12.9987 29.7864 13.5983 29.4972 14.3579C29.2079 15.1181 29.0667 16.0101 28.9856 16.8613C28.9452 17.2855 28.9203 17.6954 28.8983 18.0706C28.8964 18.1053 28.8943 18.1397 28.8924 18.1739C28.873 18.5066 28.8553 18.8128 28.8302 19.0676C28.7422 19.9638 28.6083 20.6136 28.3097 21.2683C28.0142 21.9167 27.5639 22.5552 26.8699 23.4379C26.0305 24.5069 26.5045 23.952 26.5045 23.4792C26.3924 23.388 26.3742 23.2216 26.4639 23.1075C27.1559 22.2272 27.5714 21.6315 27.8383 21.0458C28.1024 20.4662 28.228 19.882 28.313 19.0151C28.3369 18.7716 28.3541 18.4766 28.3737 18.1404C28.3756 18.1071 28.3775 18.0734 28.3796 18.0394C28.4014 17.6637 28.427 17.2453 28.4683 16.8103C28.5509 15.9434 28.6975 14.9947 29.0124 14.1669C29.3278 13.3386 29.8231 12.6031 30.6197 12.2097C31.3456 11.8511 32.2767 11.7988 33.4622 12.1505C33.4018 11.529 33.1902 10.9176 32.856 10.4329C32.4579 9.85549 31.8966 9.47078 31.2136 9.43217C30.5159 9.39268 29.9922 9.62241 29.4014 10.1021C29.0017 10.4266 28.5906 10.8481 28.0866 11.3649C27.8193 11.6388 27.526 11.9396 27.1944 12.267C26.7831 12.6729 26.374 12.9917 25.8686 13.2011C25.3634 13.4107 24.7811 13.5033 24.0327 13.4876C22.5954 13.4573 21.1526 13.0245 19.5613 12.3197C18.0441 11.648 16.3745 10.7208 14.4336 9.64322C14.3414 9.59191 14.2484 9.54025 14.155 9.48841C13.0543 8.87751 12.3102 8.54411 11.2341 8.08782C7.67365 6.57792 3.17779 5.52183 0.535713 5.14718C0.462774 6.13415 0.524622 8.45243 3.07349 10.4449C4.32263 11.1473 5.31848 11.2797 6.9427 11.4953C7.2653 11.5382 7.61284 11.5844 7.99209 11.639C8.13415 11.6595 8.23308 11.7933 8.21299 11.9379C8.19289 12.0824 8.06139 12.1831 7.91932 12.1627C7.55411 12.1101 7.21489 12.0653 6.89593 12.0232C5.47458 11.8354 4.45517 11.7007 3.32799 11.1695C3.8474 12.7981 5.41117 15.1313 8.17296 15.9669C8.23013 15.9841 8.27968 16.021 8.31346 16.0711C8.89524 16.9364 10.0434 18.1816 11.4769 19.1395C12.7286 19.9759 14.1993 20.5794 15.7456 20.5399C19.1721 20.4529 22.522 19.407 24.6209 16.9293L24.7905 16.729L25.1841 17.0743L25.0145 17.2745C22.7822 19.9098 19.2621 20.9797 15.7586 21.0689C14.0716 21.1117 12.4971 20.4541 11.1915 19.5817C9.74192 18.6131 8.57023 17.3623 7.93699 16.4468C4.73947 15.4367 3.06777 12.5629 2.69545 10.8158C-0.276146 8.4526 -0.0457168 5.64172 0.0443737 4.81924C0.05217 4.74872 0.0873391 4.68437 0.142086 4.64064C0.196834 4.59674 0.266656 4.57717 0.335783 4.58616C2.8921 4.91974 7.42088 5.95238 11.0978 7.45928L11.2133 5.6121C11.0909 5.37126 10.95 5.01459 10.828 4.64928C10.6932 4.24589 10.5737 3.80776 10.5271 3.47542C10.3176 1.98315 10.7915 0.655897 11.2825 0.0895953ZM11.6945 6.24681L11.6052 7.67226C12.6009 8.09664 13.3409 8.43409 14.4038 9.02402C14.4937 9.07391 14.5829 9.12346 14.6714 9.17265C16.6228 10.2561 18.2735 11.1727 19.7686 11.8347C21.1202 12.4333 22.3298 12.8168 23.5008 12.9273C22.2766 11.2411 20.6025 8.97677 18.9892 7.04743C16.5722 4.15738 14.8636 2.9904 13.2925 1.91738C12.6939 1.5087 12.1153 1.1136 11.5252 0.641971C11.1926 1.17548 10.8748 2.2127 11.0416 3.40066C11.0817 3.6854 11.1894 4.08774 11.3201 4.47914C11.4477 4.8612 11.5893 5.21012 11.6962 5.4097C12.9576 7.11389 14.5233 7.92879 14.9881 8.13155C15.1201 8.1892 15.1811 8.34453 15.1247 8.47887C15.0682 8.61304 14.9154 8.67528 14.7833 8.6178C14.319 8.41523 12.9375 7.69765 11.6945 6.24681Z" fill="url(#paint0_linear_2356_110)"/>
<path id="Vector_2" d="M17.05 29.003C20.7338 29.003 23.7202 25.964 23.7202 22.2151C23.7202 20.8866 23.3451 19.6474 22.6969 18.6008C23.146 18.3363 24.2169 17.5606 24.9071 16.5732C26.0147 18.1676 26.6654 20.114 26.6654 22.2151C26.6654 27.6193 22.3605 32.0002 17.05 32.0002C11.7395 32.0002 7.43457 27.6193 7.43457 22.2151C7.43457 20.2627 7.99642 18.4437 8.96472 16.9167C9.38589 17.3899 10.4223 18.4597 11.199 18.9534C10.6768 19.9213 10.3798 21.033 10.3798 22.2151C10.3798 25.964 13.3662 29.003 17.05 29.003Z" fill="url(#paint1_linear_2356_110)"/>
</g>
<defs>
<linearGradient id="paint0_linear_2356_110" x1="16.9348" y1="21.4215" x2="15.6833" y2="3.08271" gradientUnits="userSpaceOnUse">
<stop stop-color="#45E5FF"/>
<stop offset="1" stop-color="#7F42C1"/>
</linearGradient>
<linearGradient id="paint1_linear_2356_110" x1="23.9509" y1="26.182" x2="11.4578" y2="28.8249" gradientUnits="userSpaceOnUse">
<stop stop-color="#45E5FF"/>
<stop offset="1" stop-color="#7F42C1"/>
</linearGradient>
</defs>
</svg>
